<?xml version="1.0" encoding="utf-8"?>
<!-- Generator: Adobe Illustrator 22.0.0, SVG Export Plug-In . SVG Version: 6.00 Build 0)  -->
<svg version="1.1" id="图层_1" xmlns="http://www.w3.org/2000/svg" xmlns:xlink="http://www.w3.org/1999/xlink" x="0px" y="0px"
	 viewBox="0 0 224 336" style="enable-background:new 0 0 224 336;" xml:space="preserve">
<style type="text/css">
	.st0{fill:#FFFFFF;}
</style>
<g>
	<g>
		<path class="st0" d="M1,1c74.7,0,149.3,0,224,0c0,112,0,224,0,336c-74.7,0-149.3,0-224,0C1,225,1,113,1,1z M37.1,216.8
			c-2,1.9-3.7,3.1-5,4.7c-1.7,2.2-1.6,5.5,0.4,7.4c1.4,1.3,3.1,2.6,5.1,3.2c3.8,1.1,7.6,2.3,11.7,2c0.2,0,0.4,0.3,0.4,0.3
			c-0.2,0.9-0.4,1.7-0.7,2.7c4.5-0.4,8.6,0.7,12.6-1.1c1.5,2,3,4,4.7,6.2c-1.2,1.2-2.4,2.4-3.5,3.6c-4,4.3-4.8,9.7-3.3,14.8
			c1.9,6.6,7.6,10.1,14,11.2c4.7,0.8,9.6,1.4,14.6,1.3c10.7-0.3,21.3,0,32-0.1c2.7,0,5.6,0.8,8.1-1c4.7,0.1,9.3-1.7,14.1-1
			c2.4,0.3,4.8-0.2,7.1-1c6-2.3,10.9-5.8,13.4-12c1.4-3.5,2-7.2,2.5-11c0.3-1.9,0-3.9,0-5.7c2-0.6,3.6-1,6.3-1.8
			c0.1-0.1,0.7-1.4,1.6-1.8c2.7-1,3.4-3.4,4.5-5.6c0.8-1.6,1-2.9-0.2-4.5c-1.2-1.6-2.2-3.4-3.2-5.2c-2.5-4.1-4.8-8.3-7.4-12.4
			c-3.3-5.2-6.8-10.2-10.2-15.3c-1.9-2.7-4-5.3-6-8c-0.7-1-1-2.2-1.6-3.5c5.1-1.9,10.4-2.7,15.1-5.3c4.8-2.7,9.1-5.9,12.7-10.2
			c4.6,2.7,9,5.4,13.7,8.2c0.7-0.1,1.7-0.2,3.1-0.3c-1.3-3.6-4.7-4.4-6.8-6.5c-2.1-2-5-3-7.5-4.4c1.9-3.8,3.7-7.3,5.5-10.8
			c3.6-0.2,6.8,0.4,9.9,1.9c0.1,0,0.2-0.1,0.5-0.2c0.4-0.5,0.9-1.1,1.7-2.1c-3.8-1.5-7.1-2.8-10.3-4.1c0.8-4.2,1.5-8.4,2.3-12.8
			c4.7,0.5,9.3,1,13.8,1.4c0.7-0.7,1.2-1.2,1.8-1.8c-5.2-2.1-10.6-2.9-16.1-3.6c0-4.9-0.6-9.7-2.1-14.2c-1.4-4.4-3.2-8.7-4.8-13.1
			c5.5-5.4,9.7-11.6,8.7-20.7c-1.8-1.9-3.8-4.2-5.9-6.5c0-3.7-0.1-7.3,0-11c0.1-2.9-0.6-5.6-2-8.2c-0.5-0.9-0.9-2-1.2-2.8
			c-1.5-0.8-2.9-1.5-5-2.6c-3.4,0.3-7.7,0.3-11.7,1.3c-3.9,1-7.8,1.9-11.8,3c-1.1-4.3-3.5-7.5-6.6-10c-2.2-1.7-4.6-3.4-7.7-3.2
			c-1.5,0.1-7.2,2.4-8.7,3.2c-4.7,2.3-6.9,7.1-10.2,10.7c-1,1.1-1.7,2.6-2.6,4.1c-2,0-4.1,0.1-6.3,0c-2-0.2-4.1-1-6.1-0.9
			c-5.2,0.2-10.4,0.7-15.1,1.1c-1.4-0.8-2.5-1.2-3.2-1.9c-4.4-4.1-10.2-6-15.2-9.2c-3.5-0.1-6.4-2.9-10.2-1.9
			c-5.9,3.1-8.8,8.9-11.1,14.7C46.8,70.7,45.3,77,46,83c0.5,1.3,0.8,2.2,1,2.8c-6.9,10.6-12.8,21.1-13.3,33.8
			c-0.4,0.5-0.9,1-0.9,1.1c-5.6,0.6-10.7,1.1-16.3,1.6c0.7,1.1,1.2,1.9,1.7,2.8c4.8,0,9.6,0,14.5,0c0.6,3.6-0.7,7.3,1.4,10.6
			c-2.5,0.5-4.6,0.9-6.8,1.4c-1.2,0.3-2.4,0.5-3.6,1c-0.5,0.2-0.7,1-1.3,2.1c4.2-0.6,7.8,0.6,11.5-1.1c1,3.2,2,6.4,2.9,9.3
			c-4.9,1.9-9.4,3.8-14,5.7c-0.5,0.2-0.7,1-1.4,2c1.8,0,3,0.2,4.1,0c4.6-1.2,9.2-2.6,13.8-4c4.1,7.2,10.2,12.4,16.6,17.4
			c-1,1-1.8,1.8-2.7,2.8c-5.9-1.1-11.8,1-17.9,1c-3.1,0-6.5,1.4-8.2,4.3c0,2.6-0.7,5.2,0.1,7.1c3.1,7.4,4.5,15.4,7.5,22.9
			C36,210.6,37.9,213.9,37.1,216.8z"/>
		<path d="M37.1,216.8c0.8-2.9-1.1-6.2-2.3-9.3c-3-7.5-4.4-15.5-7.5-22.9c-0.8-2-0.1-4.6-0.1-7.1c1.7-2.9,5.2-4.3,8.2-4.3
			c6.1,0,12-2.2,17.9-1c1-1,1.8-1.8,2.7-2.8c-6.4-4.9-12.5-10.2-16.6-17.4c-4.6,1.3-9.2,2.7-13.8,4c-1.1,0.3-2.3,0-4.1,0
			c0.7-1,0.9-1.8,1.4-2c4.5-1.9,9.1-3.7,14-5.7c-0.9-2.9-1.9-6.1-2.9-9.3c-3.7,1.7-7.3,0.6-11.5,1.1c0.7-1.1,0.9-1.9,1.3-2.1
			c1.1-0.5,2.4-0.8,3.6-1c2.1-0.5,4.3-0.9,6.8-1.4c-2.1-3.3-0.8-7-1.4-10.6c-4.9,0-9.7,0-14.5,0c-0.5-0.9-1-1.7-1.7-2.8
			c5.6-0.6,10.7-1.1,16.3-1.6c0.1-0.1,0.5-0.6,0.9-1.1c0.5-12.7,6.4-23.3,13.3-33.8c-0.2-0.6-0.6-1.5-1-2.8
			c-0.7-6,0.8-12.3,3.1-18.1c2.3-5.8,5.3-11.5,11.1-14.7c3.8-1,6.8,1.8,10.2,1.9c5,3.2,10.8,5.1,15.2,9.2c0.8,0.7,1.9,1.1,3.2,1.9
			c4.7-0.4,9.9-0.9,15.1-1.1c2-0.1,4,0.7,6.1,0.9c2.1,0.2,4.3,0,6.3,0c0.9-1.5,1.6-3,2.6-4.1c3.4-3.6,5.5-8.4,10.2-10.7
			c1.5-0.8,7.2-3.1,8.7-3.2c3.1-0.2,5.5,1.4,7.7,3.2c3.2,2.5,5.6,5.7,6.6,10c4-1.1,7.9-2.1,11.8-3c4-1,8.3-1,11.7-1.3
			c2.1,1.1,3.5,1.8,5,2.6c0.3,0.8,0.7,1.8,1.2,2.8c1.4,2.6,2.1,5.2,2,8.2c-0.1,3.7,0,7.3,0,11c2.1,2.3,4.1,4.5,5.9,6.5
			c1,9.1-3.2,15.3-8.7,20.7c1.6,4.4,3.4,8.7,4.8,13.1c1.5,4.6,2.1,9.3,2.1,14.2c5.5,0.7,10.9,1.6,16.1,3.6c-0.6,0.6-1.1,1.1-1.8,1.8
			c-4.5-0.5-9.1-0.9-13.8-1.4c-0.8,4.4-1.5,8.6-2.3,12.8c3.1,1.2,6.5,2.6,10.3,4.1c-0.8,1-1.2,1.6-1.7,2.1c-0.2,0.1-0.4,0.2-0.5,0.2
			c-3.1-1.5-6.3-2.1-9.9-1.9c-1.8,3.5-3.6,7-5.5,10.8c2.4,1.4,5.4,2.4,7.5,4.4c2.1,2.1,5.5,2.9,6.8,6.5c-1.3,0.2-2.4,0.3-3.1,0.3
			c-4.7-2.8-9.2-5.5-13.7-8.2c-3.6,4.3-7.9,7.5-12.7,10.2c-4.7,2.6-9.9,3.4-15.1,5.3c0.6,1.3,0.9,2.5,1.6,3.5c1.9,2.7,4.1,5.3,6,8
			c3.5,5,6.9,10.1,10.2,15.3c2.6,4.1,5,8.3,7.4,12.4c1,1.7,2,3.6,3.2,5.2c1.2,1.6,1,2.9,0.2,4.5c-1.1,2.2-1.9,4.6-4.5,5.6
			c-0.9,0.4-1.5,1.7-1.6,1.8c-2.7,0.8-4.3,1.2-6.3,1.8c0,1.8,0.2,3.8,0,5.7c-0.5,3.7-1,7.4-2.5,11c-2.5,6.2-7.4,9.7-13.4,12
			c-2.3,0.8-4.6,1.3-7.1,1c-4.8-0.6-9.4,1.1-14.1,1c-2.5,1.8-5.4,0.9-8.1,1c-10.7,0.1-21.3-0.2-32,0.1c-4.9,0.1-9.8-0.5-14.6-1.3
			c-6.4-1-12.1-4.5-14-11.2c-1.4-5.1-0.6-10.5,3.3-14.8c1.1-1.2,2.3-2.3,3.5-3.6c-1.6-2.2-3.2-4.2-4.7-6.2
			c-3.9,1.7-8.1,0.6-12.6,1.1c0.3-1,0.5-1.8,0.7-2.7c0,0-0.2-0.4-0.4-0.3c-4.1,0.4-7.9-0.9-11.7-2c-2.1-0.6-3.7-1.9-5.1-3.2
			c-2-1.9-2.1-5.2-0.4-7.4C33.4,219.9,35.1,218.6,37.1,216.8z M166,216c-0.3-0.3-0.7-0.7-1-1c0-0.5,0.2-1.2,0-1.5
			c-1.8-1.8-3.2-3.8-4.4-6.2c-0.9-1.7-1.8-3.6-3-5.2c-3.2-4.1-6.5-8.1-8.8-12.8c-0.5-1-1.3-1.9-1.9-2.7c-8.2,4.1-15.6,7.9-24.3,8.4
			c-8.9,0.5-17.2-1.6-25.5-5.3c0.3,0.8,0.3,1,0.4,1.2c1.5,2.9,3.1,5.8,3.5,9c0.5,4.1-0.6,7.7-2.6,11.4c-1.4,2.5-3.2,3.7-5.6,4.6
			c-1.4,0.5-3.2,0.5-4.4,1.3c-1.9,1.2-4.1,1.1-5.6,0.5c-1.4-0.5-2.8-0.5-4.1-0.8c-3.8-1-7.6-2.3-11.5-3.5c-1.2,2-2.6,4.2-4,6.5
			c1.9,3.7,1.9,3.7,1.9,8c-2.1,1.5-4.4,3.2-6.7,4.8c2.1,1.1,3.5-0.7,5.5-1.7c0.5,1.5,1.1,3.1,1.7,4.8c0.7,0.7,1.4,1.8,2.3,2.3
			c2.9,1.5,5.5,3.5,9.4,2c2.9-1.2,5.4-2.9,8.2-4.4c0.6,0.8,1.2,1.4,1.6,2.1c3.8,6,10.2,8.2,16,3.7c1.6-1.3,3.3-2.4,5.3-3.7
			c1.7,2.1,3.3,4.2,4.4,5.5c3.7,1.8,6.7,1.8,10.3,1.6c2.6-2.4,5.6-5.1,8.6-7.9c3.6,4.5,8.1,6.8,13.5,5.9c2.1-1.1,3.7-1.9,5.2-2.7
			c1.1-2.3,2.2-4.3,3.3-6.5c2.7,1.4,5.3,2.7,8.2,4.2c1.6,0,3.6,0,5.6,0c5.6-3.6,6.5-5.1,6.4-10.5c-2.3-3.2-4.6-6.4-6.9-9.5
			C166.8,217.2,167.5,216.1,166,216z M68.4,171.4c4.5,1.6,8.5,2.6,12.2,3.9c4.9,1.8,10.1,2.1,15,3.5c3.2,0.9,6.8-0.3,10,1.1
			c6.2-0.6,12.4,0.7,18.6,1c6.4,0.4,12.7-0.6,19.1-1.2c2.3-0.2,4.8-0.5,7.1-1.1c1.7-0.4,3.6-1,5.2-1.8c0.3-0.1,0.7,0,1-0.1
			c2.1-1,4.1-2.1,6.2-3.2c0.5-0.3,1.3-0.4,1.7-0.8c2.2-2.7,6.1-3.7,7.8-7.2c-1.4-0.6-2.6-1.2-3.8-1.7c-1.2-0.5-2.4-1.1-3-1.4
			c0.5-1.1,0.9-2,1.2-2.7c2.9,1,5.5,1.9,8,2.8c2-3.2,4.3-6.5,5.6-10.7c-2.8-0.1-5.5,0.4-7.5-2.3c1.2-0.6,2.2-1.2,3.3-1.8
			c1.8,1.4,3.8,1.2,5.8,0.9c0.7-3.9,1.9-7.7,0.9-11.8c-3.5-0.2-7.1,2.3-11,0.4c0.4-0.6,0.6-1.3,1-1.6c3.1-2.1,6.6-1.8,9.6-1.8
			c2.1-1.6,1.8-3.2,1.4-4.8c-0.2-0.6-0.7-1.1-0.7-1.7c0.2-5.9-2.8-10.9-4.3-16.2c-0.2-0.6-1.1-1-1.8-1.6c-2.1,0.9-3.9,1.8-5.7,2.5
			c-2.2,0.8-4.4,2.1-6.7,1.6c-2-0.4-4.1-1.5-5.8-2.8c-2-1.5-3.8-3.4-4.7-6c-0.8-2-1.9-3.9-2.8-5.7c-5.5-1.3-10.1-3.4-12.7-8.4
			c-4.2,0-8.3,0-12.5,0c-1.1,0-2.2-0.4-3.2-0.6c-4.7-0.9-7.4-4.1-9.6-7.8c-0.5-1.8,0.7-3.8-1-5.1c1.6-1.5,1.1-3.5,0.8-5.1
			c-0.4-2,2.5-3.4,0.6-5.4c-7.3,0-14.7,0-21.4,0c-1.4,0.5-2.3,0.9-3,1.1c-1.2-0.6-2.3-1-3.1-1.6c-6.6-5.5-13.7-9.8-22-12
			c-0.4-0.1-0.8-0.4-1.2-0.6c-3.4,1.7-5.2,4.3-7.1,7.4c-1.8,3-3.1,6.1-4,9.4c-0.9,3.3-2.1,6.6-1.7,10.1c1.5,0.9,2.6,1.7,4,2.5
			c-0.8,1.2-1.6,2.4-2.4,3.5c-4.4,6.7-9.2,13.3-11.3,21.3c-1.2,4.5-3.3,8.9-2.1,13.8c3.1,0.2,3.1,0.1,6.8,2.1c0.5,0.3,0.7,1,1.4,2.1
			c-3.3,0-5.9,0-8.3,0c0,3.5,0,6.6,0,10.1c2.4,0,4.6,0,7.4,0c-1.7,2.9-4.1,2.8-6.8,2.9c0.8,2,1.5,3.7,2.2,5.3
			c0.4,0.9,0.8,1.7,1.1,2.4c3.2,0.6,6.1-0.3,9.3,0.6c-1.8,3.4-5.2,2.1-7.8,3.2c4.2,6.3,9.1,11.3,14.8,15.2
			c5.2-3.4,7.5-9.5,12.5-12.8c1.6,1,3,1.7,4.2,2.7c1.1,1.1,1.9,2.5,2.8,3.7C74.8,163.2,71.8,167.1,68.4,171.4z M107.5,241.8
			c-2.9,4.4-7.1,5.7-11.9,5.2c-4.7-0.5-8.9-2.1-10.9-6.7c-2.1,1.2-4.3,2.5-6.4,3.8c-2.6,0-5.3,0-7.7,0c-4.3,1.7-6,5.4-7.1,9.1
			c-1.2,3.7-0.4,7.2,2.5,10.2c1.8,1.9,4.1,2.8,6.5,3.7c2.1,0.8,4.3,1,6.6,1c2.4,0.1,4.7,0.9,7.1,0.9c13.9-0.3,27.7,0.9,41.6-0.9
			c2.2-0.3,4.7-0.4,6.3-1.6c2.5-1.9,5.2-4.1,6.1-7.4c1-3.8,1.6-7.7,2.2-10.4c-1.1-4-4-2.1-5.8-3.5c-1.7-1.3-3-3-4.9-4.1
			c-1.9,4.9-6.7,6-10.8,7.6c-1.9-1.3-4.1-0.5-5.6-0.7C111.7,246.4,109.2,244.7,107.5,241.8z M97,207c0-2.4-0.2-4.1,0-5.8
			c0.4-2.7-0.5-5.2-2.1-7.1c-3.4-4.1-5.9-9.1-11.4-11.2c-2.2-0.8-4.2-2-6.2-3.1c-4.6-2.5-9.5-4.2-14.9-3.9c-2.7,0.1-5.4,0.1-8.7,1.6
			c-1.7,1.9-3.9,4.5-5.8,6.6c0,2.4,0.1,4.1,0,5.7c-0.4,4.5,2,7.7,4.9,10.4c2.6,2.4,5.6,4.4,9,5.8c1.6,0.6,3.5,1,4.6,2.1
			c2.6,2.6,6.2,2.7,9.2,4.2c3.4,1.7,6.8,1.7,10.3,1.6c1.9-0.1,3.7-0.7,5.8-1.1C93.5,211,95.3,208.9,97,207z M128.9,73.1
			c1.9-2.3,1.1-5.5,4.5-7.3c3.2-1.7,5.8-2,9.8-0.1c0.3,0.3,1.5,1.5,2.4,2.4c1.7-0.6,3-1,4.3-1.5c0.8-4.9-1.7-8.8-3.9-12.8
			c-1.7-3.1-4.9-3.4-7.4-4.4c-1.8,0.5-3.3,0.8-4.8,1.3c-4.3,1.4-7.3,4.7-9.8,8.2c-2.6,3.7-4.7,7.7-7,11.3c-0.3,2.4,0.6,4.8-0.9,6.6
			c0.4,1.7,0.8,3.2,1.3,5.3c1.7,1.4,3.9,3.2,5.7,4.7c4.6,0,8.6,0,12.6,0c0-2,0-3.9,0-5.5c-1.5-0.8-3.2-1.1-3.9-2.1
			C130.6,77.4,129.9,75.2,128.9,73.1z M160.6,93c1.2-2.3,2.5-4.3,3.3-6.4c0.9-2.3,2.1-4.6,0.1-7.2c-1.4-1.8-1.8-4.6-3.4-6
			c-5-4.5-12.2-4.3-16.6,0.1c-4.8,4.8-5.6,10.6-2,16.9c0.8,1.5,2.4,2.7,3.9,3.5c1.9,1,4.1,2.1,6.1,1.9
			C154.9,95.5,157.6,94.1,160.6,93z M168,84.5c1.5,0.8,5.3,3.9,5.9,4.9c1.5,2.3,1.4,5.2-0.4,7.4c-0.9,1.2-2,2.2-2.8,3.1
			c-2.4,0-4.3,0-6.3,0c-1.5-1-2.9-2-4.4-3c-1.6,0.8-3.3,1.7-5,2.5c4.9,8.8,4.9,8.8,11.9,10.5c2.1-1,4.3-1.9,6.3-3
			c5.3-2.8,8.9-7.3,11.5-12.5c2.6-5.1,1.4-9.4-3.1-12.1c-4.1-2.5-8.7-4.1-13.7-3.2C168,81.2,168,82.9,168,84.5z M177.4,59
			c-0.4,0-1.2,0.3-1.6,0c-1.8-1.3-3.4-1.5-5.2,0c-0.3,0.2-1,0.2-1.4,0.1c-2.8-0.7-5.4,0.6-8,1.2c-2.3,0.5-4.9,1-6.7,3
			c-0.2,0.2-0.2,0.6-0.4,0.9c0.5,0.9,1,1.9,1.2,2.3c5,1.8,8.6,4.6,11.3,8.7c4.6-0.7,9,0.6,13.6,2C179.7,70.8,181.1,64.9,177.4,59z
			 M146.2,245.9c-0.2,3.1-0.2,5.5-0.6,7.9c-0.3,2.3-0.9,4.6-1.7,6.8c-0.8,2.1-2,4-3.3,6.5c2.6-0.4,4.6-0.7,6.5-1.1
			c4.5-1,10.3-5.4,11.7-9.6c1.2-3.9,1.5-8,2.1-12.1c0.1-0.4-0.3-0.8-0.5-1.3c-0.3-0.9-0.5-1.8-0.8-2.7c-1.4-0.7-2.9-1.4-4.4-2.2
			c-1.1,3.1-4,4.5-5.4,6.3C148.2,245.1,147.2,245.5,146.2,245.9z M90.2,181.7c1.1,1.1,1.3,1.4,1.6,1.6c6.7,4.2,14.2,6.3,21.8,7.6
			c4.9,0.8,10,0.2,14.9,0.1c0.5,0,0.9-0.2,1.4-0.3c4.6-1.6,9.2-3,13.3-6.7c-2,0-3.9-0.6-5.2,0.1c-2.7,1.4-5.4,0.9-8.1,0.8
			c-8-0.2-16-0.6-24-0.9c-0.8,0-1.9,0.3-2.4-0.2c-1.9-1.7-4.4,0.1-6.1-1.1C95.3,181.4,93.3,182.4,90.2,181.7z M34.8,196.7
			c0.3,1.7,0.3,3,0.6,4.2c1.1,3.4,2.7,6.6,3.4,10c0.6,2.9,1.9,4.9,5.6,6.1c1.2,0.1,3.6-0.7,5.3,0.8c1.7-0.4,3.2-0.8,4.9-1.2
			c0.6-0.6,1.4-1.4,2.1-2c0.5-2.2,0.9-4.2,1.4-6.4c-2.3-1.5-4.6-2.7-6.4-4.3c-2-1.8-3.5-4.1-5.2-6C42.7,197.5,39,197.1,34.8,196.7z
			 M40.6,229.9c2.7,0.4,5.5,1,8.4,1c2.8,0,5.7-0.7,9.2-1.1c1.1-1.1,2.6-2.6,4.1-4.1c-1.6-1.2-1.2-3.9-3.4-3.7
			c-1.2,1.5-2.3,2.8-3.2,4c-9,0.6-11.5,0.3-15.3-1.2c-0.7-1.4-1.4-2.7-2.1-4.2c-1.3,1.3-2.3,2.3-3.4,3.4c0.5,1.3,1,2.6,1.4,3.6
			C37.8,228.4,39.2,229.1,40.6,229.9z M43.8,184.3c2.5-3.5,4.5-6.1,6.7-9.1c-1.1-0.1-1.8-0.3-2.4-0.2c-3,0.3-6,0.8-9.1,0.9
			c-1.9,0.1-3.7,0.3-5.6,0.9c-1.4,0.5-2.3,1.1-2.4,2.5c-0.2,1.6,0.9,2.3,2.2,2.6C36.9,182.8,40.6,183.6,43.8,184.3z M56.4,173
			c3.1-0.6,5.3-1,7.8-1.4c3.2-3.7,6.6-7.6,10.2-11.7c-1.3-1.2-2.4-2.2-3.7-3.4C65.9,162,61.4,167.2,56.4,173z M31.2,184.7
			c0.8,3.1,1.5,5.6,2.1,8c3.8,2,7.8,1.2,12,1c-2.4-2.1-0.4-4.8-1.6-6.5c-2.2-0.4-4.2-0.8-6.2-1.2C35.5,185.6,33.5,185.2,31.2,184.7z
			 M133,74.4c1.2,1.8,1.9,2.8,2.5,3.7c3.1-0.4,1.9-3.3,3.4-4.5c1.5-1.2,2.8-2.7,4.4-4.1c-2.1-0.8-4-1.6-5.9-2.3
			c-1.4,1-2.9,2.1-4.3,3.1C133,72.2,133,73.8,133,74.4z M171.8,92.3c-0.6-0.9-1.3-2.1-2-3.1c-1,0-1.8,0-2.8,0
			c-1.1,2-2.1,4.1-3.2,6.1c2.6,2.3,5.1,2.4,6.7,0.7C171.1,94.4,171.4,93.4,171.8,92.3z M55.4,220.2c-4.7-0.7-9.1,0.5-13.6-0.9
			c0.6,1.3,1,2.4,1.5,3.5C53.2,223.3,53.2,223.3,55.4,220.2z M59.2,217.8c0.3,0.1,0.9,0.1,1.3,0.2c1.2-2.4,2.3-4.5,3.4-6.9
			c-0.9,0-1.7,0-2.5,0C60.7,213.2,60,215.4,59.2,217.8z"/>
		<path class="st0" d="M68.4,171.4c3.4-4.3,6.4-8.2,9.5-12.1c-0.9-1.2-1.7-2.6-2.8-3.7c-1.1-1.1-2.6-1.7-4.2-2.7
			c-5,3.3-7.3,9.4-12.5,12.8c-5.7-3.9-10.6-8.9-14.8-15.2c2.6-1.1,6,0.2,7.8-3.2c-3.2-0.8-6.2,0-9.3-0.6c-0.3-0.7-0.7-1.5-1.1-2.4
			c-0.7-1.7-1.4-3.3-2.2-5.3c2.7-0.1,5.1,0,6.8-2.9c-2.7,0-5,0-7.4,0c0-3.5,0-6.6,0-10.1c2.4,0,5,0,8.3,0c-0.7-1.1-0.9-1.9-1.4-2.1
			c-3.7-2-3.7-1.9-6.8-2.1c-1.2-4.9,0.9-9.3,2.1-13.8c2.1-8,6.9-14.6,11.3-21.3c0.7-1.1,1.5-2.3,2.4-3.5c-1.3-0.8-2.5-1.6-4-2.5
			c-0.4-3.5,0.8-6.7,1.7-10.1c0.9-3.3,2.2-6.3,4-9.4c1.9-3.2,3.7-5.8,7.1-7.4c0.3,0.2,0.7,0.4,1.2,0.6c8.3,2.2,15.5,6.6,22,12
			c0.8,0.7,1.9,1,3.1,1.6c0.7-0.3,1.6-0.6,3-1.1c6.7,0,14,0,21.4,0c1.9,2-1,3.4-0.6,5.4c0.3,1.6,0.8,3.6-0.8,5.1
			c1.7,1.3,0.5,3.3,1,5.1c2.2,3.7,4.9,6.8,9.6,7.8c1,0.2,2.1,0.6,3.2,0.6c4.2,0.1,8.3,0,12.5,0c2.6,5.1,7.3,7.1,12.7,8.4
			c0.9,1.8,2,3.7,2.8,5.7c1,2.5,2.7,4.4,4.7,6c1.7,1.3,3.7,2.4,5.8,2.8c2.3,0.4,4.6-0.8,6.7-1.6c1.9-0.7,3.7-1.6,5.7-2.5
			c0.6,0.6,1.6,1,1.8,1.6c1.5,5.4,4.5,10.4,4.3,16.2c0,0.6,0.5,1.1,0.7,1.7c0.4,1.6,0.7,3.2-1.4,4.8c-3-0.1-6.6-0.3-9.6,1.8
			c-0.5,0.3-0.7,1-1,1.6c3.9,1.8,7.4-0.7,11-0.4c1,4.1-0.2,7.9-0.9,11.8c-2,0.3-4,0.6-5.8-0.9c-1.1,0.6-2.1,1.2-3.3,1.8
			c2,2.7,4.7,2.1,7.5,2.3c-1.3,4.2-3.6,7.5-5.6,10.7c-2.5-0.9-5.1-1.8-8-2.8c-0.3,0.7-0.7,1.6-1.2,2.7c0.6,0.3,1.8,0.8,3,1.4
			c1.2,0.6,2.4,1.1,3.8,1.7c-1.7,3.5-5.6,4.5-7.8,7.2c-0.4,0.4-1.1,0.5-1.7,0.8c-2.1,1.1-4.1,2.1-6.2,3.2c-0.3,0.1-0.7,0-1,0.1
			c-1.7,0.9-3.5,1.4-5.2,1.8c-2.3,0.5-4.7,0.9-7.1,1.1c-6.3,0.6-12.7,1.5-19.1,1.2c-6.2-0.4-12.3-1.7-18.6-1
			c-3.2-1.5-6.9-0.3-10-1.1c-5-1.3-10.1-1.7-15-3.5C76.9,174,72.9,173,68.4,171.4z M145.5,136.3c-1.1,0.4-2.2,0.7-3.2,1
			c-0.7,1.5-1.4,2.9-2.3,4.6c0,1.2,0,2.9,0,4.4c0.8,1.3,1.6,2.5,2.2,3.5c2.1,0,3.9,0,5.8,0c1-1.8,1.9-3.6,3-5.6
			c0.2-2.3,0.1-4.9-2.1-6.8C147.8,137,146.6,136.7,145.5,136.3z M72.6,128c-1.7-1.4-3.6-2.4-6.2-1.9c-3.3,2.6-3.5,6.5-3.4,10.4
			c1.2,1.2,2.3,2.3,3.8,3.8c1.6-0.4,3.4-0.9,5-1.4c0.8-2.5,1.4-4.7,2.1-6.9C73.5,130.7,73,129.4,72.6,128z M101.3,156
			c3.3-0.2,6.7,0.7,9.5-1.4c0.1-0.5,0.2-0.9,0.4-1.4c1.7-4.1,0.6-7.2-3.3-8.8c-2.5-1-5.1-2.6-7.9-0.5c-0.3,0.2-1,0-1.5,0
			c-0.8,0.8-1.7,1.7-2.3,2.3c0,1.9,0,3.7,0,5.6C97.9,153.3,99.7,154.7,101.3,156z"/>
		<path class="st0" d="M167,218c2.3,3.1,4.5,6.3,6.9,9.5c0.2,5.4-0.7,6.9-6.4,10.5c-2,0-4,0-5.6,0c-2.9-1.5-5.5-2.8-8.2-4.2
			c-1.1,2.2-2.1,4.2-3.3,6.5c-1.5,0.8-3.1,1.6-5.2,2.7c-5.4,0.9-9.9-1.4-13.5-5.9c-3,2.8-6,5.5-8.6,7.9c-3.6,0.2-6.7,0.2-10.3-1.6
			c-1.1-1.4-2.8-3.5-4.4-5.5c-1.9,1.4-3.7,2.4-5.3,3.7c-5.8,4.6-12.2,2.3-16-3.7c-0.4-0.7-1-1.3-1.6-2.1c-2.8,1.5-5.3,3.2-8.2,4.4
			c-3.9,1.5-6.5-0.5-9.4-2c-1-0.5-1.7-1.6-2.3-2.3c-0.6-1.8-1.1-3.4-1.7-4.8c-1.9,1-3.4,2.7-5.5,1.7c2.3-1.6,4.6-3.2,6.7-4.8
			c0-4.3,0-4.3-1.9-8c1.4-2.3,2.8-4.6,4-6.5c4,1.2,7.7,2.5,11.5,3.5c1.3,0.4,2.7,0.3,4.1,0.8c1.6,0.6,3.7,0.7,5.6-0.5
			c1.3-0.8,3-0.8,4.4-1.3c2.4-0.9,4.2-2.1,5.6-4.6c2.1-3.7,3.1-7.3,2.6-11.4c-0.4-3.3-2-6.1-3.5-9c-0.1-0.2-0.2-0.5-0.4-1.2
			c8.4,3.7,16.7,5.8,25.5,5.3c8.7-0.5,16.1-4.3,24.3-8.4c0.6,0.8,1.4,1.7,1.9,2.7c2.3,4.8,5.7,8.7,8.8,12.8c1.2,1.6,2.2,3.5,3,5.2
			c1.2,2.3,2.6,4.3,4.4,6.2c0.2,0.3,0,1,0,1.5c-1.5-0.4-3-0.8-4.2-1c-1.5,1.3-2.7,2.5-4.1,3.8c0.5,1.7,1,3.5,1.3,4.5
			c3.2,2.7,5.4,1.5,7.5-0.2C166,220.6,166.5,219.3,167,218z M140.3,233.2c-0.4,1.4-0.7,2.5-1,3.5c0.8,2.7,2.8,4.2,5.4,4.3
			c1.5-1.5,2.7-2.7,4.4-4.4c-0.3-1.1-0.9-2.9-1.4-4.6c-1.9-0.5-3.6-0.9-5-1.3C141.6,231.9,140.8,232.7,140.3,233.2z M81.6,220.8
			c-1.6-0.7-2.9-1.4-4.2-2c-1.3,0.6-2.3,1-2.4,1.1c-2.9,3-2.3,5.6-0.7,7.7c1.2,0.6,2,1,2.1,1c3.3-0.4,5.8-1.3,6.2-3.8
			C82.3,223.3,82,222.3,81.6,220.8z M118.3,225c-1,1.4-2.1,3-3,4.2c0.5,1.7,0.8,2.8,1.2,4.1c1.6,0.7,3.1,1.4,4.3,1.9
			c1.6-1.6,2.8-2.8,4.1-4.1c0-0.9,0-1.8,0-2c-1.5-1.7-2.6-2.9-3.8-4.1C120.4,225,119.6,225,118.3,225z M98.3,234.2
			c-0.9-1.5-1.8-3-2.4-4c-2.2,0-4,0-5.6,0c-2.5,3.8-2.5,3.8-1,7.5c2.6,1.8,5.1,1.8,7.5,0.1C97.2,236.7,97.6,235.8,98.3,234.2z
			 M108.8,219.7c0-1.6,0-3.1,0-4.3c-0.9-0.9-1.6-1.6-2.2-2.2c-1.5,0-2.9,0-4.4,0c0.1,0.2,0.3,0.4,0.4,0.5c-1,0.6-2,1.2-2.6,1.6
			c0,1.8,0,3.1,0,3.9c1,1.2,1.7,2,2.3,2.8c1.6,0,2.9,0,4.1,0C107.4,221.1,108.2,220.3,108.8,219.7z M139.8,211.6
			c-2.9-2.5-5.3-1.6-7.3-0.4c-2.5,3.3-1.1,5.6,0.7,7.5c1.4,0.4,2.5,0.7,3.5,1c3,0,3.4-2.7,4.3-4.6
			C140.5,213.7,140.1,212.6,139.8,211.6z M147.9,194.4c-2.8-1-4.8-0.2-6.8,1c0,1.8,0,3.5,0,4.6c1.1,1.4,1.7,2.3,2.2,2.9
			c1.7,0,3,0,3.9,0c1.1-1,2-1.7,2.7-2.3c0-1.5,0-2.8,0-4.1C149.1,195.6,148.3,194.8,147.9,194.4z M113.4,199.9
			c-0.4,1.6-0.8,2.7-1.1,4.1c1,1.3,2.1,2.8,3,4c1.5,0,2.4,0,2.3,0c2-1.5,3.3-2.6,4.4-3.5c0-1.1,0-1.9,0-3.2c-1.5-1.1-3.3-2.3-5-3.4
			c-0.9,0.5-1.4,0.9-1.9,1.2C114.6,199.3,114,199.5,113.4,199.9z"/>
		<path class="st0" d="M107.5,241.8c1.7,2.9,4.2,4.7,7.5,6.3c1.5,0.2,3.7-0.6,5.6,0.7c4.2-1.6,8.9-2.8,10.8-7.6
			c1.9,1.1,3.2,2.8,4.9,4.1c1.8,1.4,4.7-0.6,5.8,3.5c-0.6,2.7-1.2,6.6-2.2,10.4c-0.9,3.3-3.5,5.5-6.1,7.4c-1.6,1.2-4.1,1.4-6.3,1.6
			c-13.8,1.8-27.7,0.6-41.6,0.9c-2.4,0-4.7-0.8-7.1-0.9c-2.3-0.1-4.4-0.2-6.6-1c-2.4-0.9-4.7-1.8-6.5-3.7c-2.8-2.9-3.6-6.5-2.5-10.2
			c1.2-3.7,2.9-7.4,7.1-9.1c2.4,0,5,0,7.7,0c2.2-1.3,4.3-2.5,6.4-3.8c2,4.6,6.2,6.2,10.9,6.7C100.4,247.5,104.6,246.2,107.5,241.8z"
			/>
		<path class="st0" d="M97,207c-1.7,1.9-3.5,4-5.2,5.9c-2.1,0.4-3.9,1-5.8,1.1c-3.5,0.1-6.9,0.1-10.3-1.6c-3-1.5-6.6-1.6-9.2-4.2
			c-1.1-1.1-3-1.5-4.6-2.1c-3.4-1.4-6.4-3.4-9-5.8c-2.9-2.6-5.3-5.9-4.9-10.4c0.2-1.6,0-3.3,0-5.7c1.9-2.1,4.1-4.6,5.8-6.6
			c3.3-1.5,6-1.4,8.7-1.6c5.4-0.3,10.2,1.4,14.9,3.9c2,1.1,4,2.3,6.2,3.1c5.5,2,8,7.1,11.4,11.2c1.6,1.9,2.5,4.4,2.1,7.1
			C96.8,202.9,97,204.5,97,207z"/>
		<path class="st0" d="M128.9,73.1c1,2.1,1.7,4.3,3,6.2c0.7,1,2.4,1.3,3.9,2.1c0,1.6,0,3.5,0,5.5c-4.1,0-8.1,0-12.6,0
			c-1.8-1.5-4-3.3-5.7-4.7c-0.5-2.2-0.9-3.7-1.3-5.3c1.5-1.8,0.6-4.2,0.9-6.6c2.2-3.7,4.4-7.7,7-11.3c2.5-3.5,5.5-6.8,9.8-8.2
			c1.5-0.5,3-0.8,4.8-1.3c2.4,1,5.7,1.3,7.4,4.4c2.1,4,4.7,7.9,3.9,12.8c-1.3,0.4-2.6,0.9-4.3,1.5c-0.9-0.9-2.1-2.1-2.4-2.4
			c-4-1.9-6.6-1.6-9.8,0.1C130,67.6,130.8,70.9,128.9,73.1z"/>
		<path class="st0" d="M160.6,93c-3,1.1-5.7,2.5-8.5,2.8c-2,0.2-4.2-0.9-6.1-1.9c-1.5-0.8-3.1-2.1-3.9-3.5c-3.6-6.3-2.8-12.1,2-16.9
			c4.4-4.4,11.6-4.6,16.6-0.1c1.6,1.4,2,4.2,3.4,6c2,2.6,0.7,4.9-0.1,7.2C163.1,88.7,161.9,90.7,160.6,93z"/>
		<path class="st0" d="M168,84.5c0-1.7,0-3.3,0-5.3c5-0.9,9.6,0.7,13.7,3.2c4.5,2.7,5.6,7,3.1,12.1c-2.6,5.1-6.2,9.7-11.5,12.5
			c-2,1.1-4.2,2-6.3,3c-7-1.7-7-1.7-11.9-10.5c1.7-0.8,3.4-1.7,5-2.5c1.5,1,2.9,2,4.4,3c1.9,0,3.9,0,6.3,0c0.8-0.9,1.9-1.9,2.8-3.1
			c1.8-2.3,1.9-5.2,0.4-7.4C173.3,88.5,169.6,85.4,168,84.5z"/>
		<path class="st0" d="M177.4,59c3.7,5.9,2.3,11.8,2.7,18.1c-4.6-1.4-9-2.7-13.6-2c-2.7-4.2-6.4-6.9-11.3-8.7
			c-0.2-0.4-0.7-1.4-1.2-2.3c0.1-0.3,0.2-0.7,0.4-0.9c1.8-2,4.4-2.6,6.7-3c2.6-0.5,5.2-1.9,8-1.2c0.5,0.1,1.1,0.2,1.4-0.1
			c1.8-1.5,3.4-1.2,5.2,0C176.2,59.3,177,59,177.4,59z"/>
		<path class="st0" d="M146.2,245.9c1-0.4,2-0.8,3.8-1.5c1.3-1.8,4.3-3.2,5.4-6.3c1.5,0.7,3,1.5,4.4,2.2c0.2,0.9,0.5,1.8,0.8,2.7
			c0.1,0.4,0.5,0.9,0.5,1.3c-0.6,4-0.9,8.2-2.1,12.1c-1.4,4.2-7.2,8.6-11.7,9.6c-1.9,0.4-3.9,0.7-6.5,1.1c1.3-2.5,2.5-4.4,3.3-6.5
			c0.8-2.2,1.3-4.5,1.7-6.8C146,251.4,146,249,146.2,245.9z"/>
		<path class="st0" d="M90.2,181.7c3.1,0.7,5.2-0.3,7.2,1.1c1.7,1.1,4.2-0.7,6.1,1.1c0.5,0.4,1.6,0.1,2.4,0.2c8,0.3,16,0.8,24,0.9
			c2.7,0.1,5.4,0.6,8.1-0.8c1.3-0.7,3.2-0.1,5.2-0.1c-4.1,3.6-8.7,5.1-13.3,6.7c-0.4,0.1-0.9,0.3-1.4,0.3c-5,0-10.1,0.7-14.9-0.1
			c-7.6-1.3-15.1-3.4-21.8-7.6C91.5,183.1,91.3,182.8,90.2,181.7z"/>
		<path class="st0" d="M34.8,196.7c4.2,0.4,7.9,0.8,11.8,1.2c1.7,2,3.2,4.3,5.2,6c1.8,1.7,4.2,2.8,6.4,4.3c-0.5,2.2-0.9,4.2-1.4,6.4
			c-0.7,0.6-1.5,1.4-2.1,2c-1.8,0.4-3.3,0.8-4.9,1.2c-1.8-1.5-4.1-0.6-5.3-0.8c-3.7-1.2-5-3.2-5.6-6.1c-0.7-3.4-2.3-6.7-3.4-10
			C35.1,199.8,35.1,198.5,34.8,196.7z M39.1,205.6c2.6,1.9,4.2,1.9,6.8,0c0-1.5,0-2.9,0-4.5c-1.2-0.7-2.4-1.4-3.5-2
			c-1.1,0.7-2.2,1.4-3.3,2C39.1,202.7,39.1,204.2,39.1,205.6z M46,212.8c1.1,0.7,2.3,1.4,3.5,2.1c0.8-0.8,1.6-1.6,2.3-2.3
			c0-1.3,0-2.4,0-3.4c-1.2-0.5-2.1-0.9-3-1.3c-1,0.6-1.9,1.1-2.7,1.6C46,210.6,46,211.6,46,212.8z"/>
		<path class="st0" d="M40.6,229.9c-1.5-0.7-2.8-1.4-4.4-2.2c-0.4-1-0.9-2.3-1.4-3.6c1.1-1.1,2.1-2.1,3.4-3.4
			c0.8,1.5,1.4,2.8,2.1,4.2c3.7,1.5,6.2,1.7,15.3,1.2c0.9-1.2,2-2.5,3.2-4c2.2-0.2,1.8,2.5,3.4,3.7c-1.5,1.5-3,3-4.1,4.1
			c-3.5,0.5-6.3,1.1-9.2,1.1C46.2,230.9,43.3,230.2,40.6,229.9z"/>
		<path class="st0" d="M43.8,184.3c-3.2-0.7-6.9-1.5-10.6-2.3c-1.4-0.3-2.4-1-2.2-2.6c0.2-1.4,1-2,2.4-2.5c1.9-0.6,3.7-0.8,5.6-0.9
			c3-0.2,6-0.6,9.1-0.9c0.6-0.1,1.2,0.1,2.4,0.2C48.3,178.2,46.3,180.8,43.8,184.3z"/>
		<path class="st0" d="M56.4,173c5-5.8,9.4-11,14.2-16.6c1.3,1.2,2.5,2.3,3.7,3.4c-3.6,4.2-7,8.1-10.2,11.7
			C61.7,172.1,59.6,172.4,56.4,173z"/>
		<path class="st0" d="M31.2,184.7c2.3,0.5,4.3,0.9,6.3,1.3c2,0.4,4,0.8,6.2,1.2c1.2,1.7-0.8,4.4,1.6,6.5c-4.3,0.2-8.2,1-12-1
			C32.6,190.4,32,187.8,31.2,184.7z"/>
		<path class="st0" d="M133,74.4c0-0.5,0-2.2,0-4.1c1.4-1,2.9-2.1,4.3-3.1c2,0.8,3.8,1.5,5.9,2.3c-1.5,1.5-2.9,2.9-4.4,4.1
			c-1.5,1.2-0.3,4.1-3.4,4.5C134.9,77.2,134.2,76.1,133,74.4z"/>
		<path class="st0" d="M171.8,92.3c-0.4,1.2-0.7,2.2-1.2,3.6c-1.7,1.7-4.2,1.6-6.7-0.7c1-2,2.1-4,3.2-6.1c1,0,1.8,0,2.8,0
			C170.5,90.2,171.2,91.4,171.8,92.3z"/>
		<path class="st0" d="M55.4,220.2c-2.2,3-2.2,3-12,2.6c-0.5-1.1-1-2.2-1.5-3.5C46.3,220.7,50.6,219.5,55.4,220.2z"/>
		<path class="st0" d="M59.2,217.8c0.8-2.4,1.5-4.5,2.2-6.6c0.8,0,1.6,0,2.5,0c-1.2,2.3-2.2,4.5-3.4,6.9
			C60.1,217.9,59.5,217.8,59.2,217.8z"/>
		<path class="st0" d="M166,216c1.5,0.1,0.8,1.2,1,2C165.5,217.9,166.2,216.8,166,216z"/>
		<path class="st0" d="M165,215c0.3,0.3,0.7,0.7,1,1C165.7,215.7,165.3,215.3,165,215z"/>
		<path d="M145.5,136.3c1.1,0.3,2.3,0.7,3.4,1.1c2.1,1.9,2.3,4.5,2.1,6.8c-1.1,2-2,3.8-3,5.6c-1.9,0-3.7,0-5.8,0
			c-0.6-1-1.4-2.2-2.2-3.5c0-1.5,0-3.2,0-4.4c0.9-1.7,1.5-3.1,2.3-4.6C143.2,137,144.4,136.7,145.5,136.3z"/>
		<path d="M72.6,128c0.5,1.4,0.9,2.7,1.4,4c-0.7,2.2-1.3,4.4-2.1,6.9c-1.7,0.5-3.4,0.9-5,1.4c-1.4-1.4-2.6-2.6-3.8-3.8
			c-0.1-3.9,0.1-7.8,3.4-10.4C68.9,125.6,70.8,126.6,72.6,128z"/>
		<path d="M101.3,156c-1.6-1.3-3.4-2.7-5.2-4.1c0-1.9,0-3.7,0-5.6c0.7-0.7,1.5-1.5,2.3-2.3c0.5,0,1.1,0.2,1.5,0
			c2.8-2.1,5.4-0.5,7.9,0.5c4,1.5,5,4.7,3.3,8.8c-0.2,0.4-0.2,0.9-0.4,1.4C108,156.7,104.7,155.8,101.3,156z M99.1,151.7
			c3.2,2.8,6.4,3,9.7,0.9c0-1.4,0-2.9,0-4.2c-2.5-2.7-5.5-2.6-8.5-2.3c-0.4,0.4-0.7,0.7-1.2,1.2C99.1,148.7,99.1,150.1,99.1,151.7z"
			/>
		<path d="M140.3,233.2c0.5-0.5,1.3-1.3,2.4-2.4c1.5,0.4,3.2,0.8,5,1.3c0.5,1.7,1,3.4,1.4,4.6c-1.7,1.7-3,2.9-4.4,4.4
			c-2.6-0.1-4.6-1.7-5.4-4.3C139.6,235.6,139.9,234.6,140.3,233.2z M142.5,233c-0.5,1.1-1.1,2.2-1.5,3.1c1,1.1,1.8,2.1,2.7,3.1
			c1.3-0.7,2.4-1.2,3.7-1.9c-0.5-1.5-0.9-3-1.4-4.3C144.5,233,143.5,233,142.5,233z"/>
		<path d="M81.6,220.8c0.4,1.5,0.7,2.5,1.1,4.1c-0.5,2.5-2.9,3.4-6.2,3.8c-0.1-0.1-0.9-0.5-2.1-1c-1.6-2.2-2.2-4.7,0.7-7.7
			c0.2-0.1,1.2-0.5,2.4-1.1C78.7,219.4,80.1,220.1,81.6,220.8z M75,225.9c1,0.5,2.1,1,3.2,1.5c1.2-1.3,2.1-2.4,3.2-3.6
			c-1.2-1.1-2.1-2-3.3-3.1c-1.1,0.5-2.1,1-3.1,1.5C75,223.5,75,224.5,75,225.9z"/>
		<path d="M165,215c0.3,0.3,0.7,0.7,1,1c0.2,0.8-0.5,1.9,1,2c-0.5,1.3-1,2.6-1.5,4c-2.1,1.7-4.3,2.9-7.5,0.2c-0.3-1-0.8-2.8-1.3-4.5
			c1.5-1.3,2.7-2.5,4.1-3.8C162,214.2,163.5,214.6,165,215z M165,219.7c-1.1-1.5-2-2.6-3-3.9c-0.9,0.4-1.9,0.8-2.9,1.3
			c0,1.4,0,2.5,0,4c1,0.4,2.1,0.9,3.3,1.3c-0.2-0.3-0.3-0.7-0.5-1C163,220.7,164.2,220.1,165,219.7z"/>
		<path d="M118.3,225c1.3,0,2.1,0,2.9,0c1.1,1.2,2.2,2.4,3.8,4.1c0,0.1,0,1.1,0,2c-1.3,1.3-2.5,2.5-4.1,4.1
			c-1.2-0.5-2.8-1.2-4.3-1.9c-0.4-1.3-0.7-2.5-1.2-4.1C116.1,228,117.3,226.4,118.3,225z M122.9,228.1c-0.9-0.4-1.9-0.9-2.3-1.1
			c-1.4,1.3-2.4,2.2-3.5,3.3c0.9,0.8,1.9,1.8,3.1,3c0.8-0.4,1.8-0.8,2.8-1.3C122.9,230.6,122.9,229.5,122.9,228.1z"/>
		<path d="M98.3,234.2c-0.7,1.5-1.1,2.5-1.5,3.5c-2.4,1.7-4.9,1.7-7.5-0.1c-1.5-3.6-1.5-3.6,1-7.5c1.6,0,3.4,0,5.6,0
			C96.5,231.3,97.3,232.7,98.3,234.2z M95,237c0.4-1,0.9-2.2,1.4-3.3c-1.4-1.1-2.4-2-3.3-2.7c-1.3,1.1-2.3,1.9-3.6,2.9
			c0.7,1.2,1.3,2.3,1.7,3.1C92.6,237,93.6,237,95,237z"/>
		<path d="M108.8,219.7c-0.6,0.6-1.5,1.4-2.4,2.3c-1.2,0-2.5,0-4.1,0c-0.6-0.7-1.3-1.6-2.3-2.8c0-0.8,0-2.1,0-3.9
			c0.6-0.4,1.6-1,2.6-1.6c-0.1-0.2-0.3-0.4-0.4-0.5c1.4,0,2.9,0,4.4,0c0.6,0.6,1.3,1.3,2.2,2.2C108.8,216.6,108.8,218,108.8,219.7z
			 M106.5,214.7c-1.6,0.4-3,0.8-4.6,1.2c0.1,1.7,0.1,2.9,0.2,4c1.8,0,3.2,0,4.5,0c0.5-0.6,1-1.1,1.4-1.5
			C107.6,217.3,107.2,216.3,106.5,214.7z"/>
		<path d="M139.8,211.6c0.3,1,0.7,2.2,1.1,3.5c-0.9,1.9-1.2,4.6-4.3,4.6c-1-0.3-2-0.6-3.5-1c-1.8-1.9-3.2-4.2-0.7-7.5
			C134.4,210,136.9,209.1,139.8,211.6z M139.3,215.2c-0.4-1-0.9-2.1-1.4-3.3c-1.9,0.3-3.7-0.5-4.8,1.6c0,0.9,0,2,0,3.1
			c1.1,0.5,2.2,1,3.3,1.5C137.4,217.1,138.2,216.3,139.3,215.2z"/>
		<path d="M147.9,194.4c0.4,0.4,1.2,1.2,2,2.1c0,1.2,0,2.5,0,4.1c-0.7,0.6-1.6,1.4-2.7,2.3c-0.9,0-2.2,0-3.9,0
			c-0.5-0.7-1.2-1.6-2.2-2.9c0-1.1,0-2.8,0-4.6C143.1,194.2,145.1,193.4,147.9,194.4z M147.8,199.7c0-1.3,0-2.4,0-3.4
			c-0.9-0.4-1.6-0.7-2.5-1.1c-1,0.7-2.3,1.5-3.8,2.5c0.6,0.8,1.1,1.2,1.3,1.8c0.3,0.5,0.3,1.1,0.4,1.5c1.3,0,2.3,0,3.2,0
			C147.1,200.4,147.5,200,147.8,199.7z"/>
		<path d="M113.4,199.9c0.6-0.3,1.2-0.6,1.8-0.9c0.5-0.3,1.1-0.7,1.9-1.2c1.6,1.1,3.4,2.4,5,3.4c0,1.3,0,2.1,0,3.2
			c-1.2,0.9-2.4,1.9-4.4,3.5c0.2,0-0.8,0-2.3,0c-0.9-1.2-2-2.7-3-4C112.6,202.6,112.9,201.5,113.4,199.9z M117.6,200
			c-1.7,1.2-2.8,2-3.9,2.8c0.4,0.6,0.7,1,0.9,1.4c0.3,0.5,0.5,1.1,0.7,1.7c1.1,0,2.2,0,3.2,0c1.9-1.2,1.5-2.9,1.3-4.8
			C119.1,200.7,118.1,200.2,117.6,200z"/>
		<path d="M39.1,205.6c0-1.4,0-2.9,0-4.4c1.1-0.7,2.2-1.3,3.3-2c1.1,0.6,2.3,1.3,3.5,2c0,1.6,0,3,0,4.5
			C43.3,207.5,41.7,207.5,39.1,205.6z M44,204.5c0.3-1.6-0.2-2.7-1.7-3.4c-1.7,2.7-1.7,3.8,0.3,4.8C43.1,205.4,43.5,205,44,204.5z"
			/>
		<path d="M46,212.8c0-1.2,0-2.1,0-3.2c0.8-0.5,1.7-1,2.7-1.6c0.9,0.4,1.9,0.8,3,1.3c0,1,0,2.1,0,3.4c-0.7,0.7-1.5,1.5-2.3,2.3
			C48.4,214.2,47.2,213.5,46,212.8z M48.2,213.4c1.2-0.7,2.1-1.2,3.3-1.9c-1.2-0.7-2.1-1.1-3.3-1.8C48.2,211.1,48.2,212,48.2,213.4z
			"/>
		<path class="st0" d="M99.1,151.7c0-1.6,0-3.1,0-4.4c0.5-0.5,0.8-0.8,1.2-1.2c3.1-0.4,6.1-0.4,8.5,2.3c0,1.3,0,2.8,0,4.2
			C105.5,154.7,102.4,154.5,99.1,151.7z"/>
		<path class="st0" d="M142.5,233c1,0,2,0,3.5,0c0.4,1.3,0.9,2.8,1.4,4.3c-1.4,0.7-2.4,1.2-3.7,1.9c-0.8-1-1.7-1.9-2.7-3.1
			C141.4,235.2,141.9,234.1,142.5,233z"/>
		<path class="st0" d="M75,225.9c0-1.4,0-2.3,0-3.7c0.9-0.5,2-1,3.1-1.5c1.2,1.2,2.1,2,3.3,3.1c-1.1,1.2-2,2.3-3.2,3.6
			C77.1,226.8,76,226.3,75,225.9z"/>
		<path class="st0" d="M165,219.7c-0.8,0.4-1.9,1-3.1,1.7c0.2,0.3,0.3,0.7,0.5,1c-1.1-0.5-2.3-0.9-3.3-1.3c0-1.5,0-2.6,0-4
			c1-0.4,1.9-0.9,2.9-1.3C163,217.1,163.9,218.2,165,219.7z"/>
		<path class="st0" d="M122.9,228.1c0,1.4,0,2.5,0,3.9c-0.9,0.4-1.9,0.9-2.8,1.3c-1.2-1.2-2.3-2.2-3.1-3c1.1-1,2.1-2,3.5-3.3
			C121,227.2,122,227.6,122.9,228.1z"/>
		<path class="st0" d="M95,237c-1.4,0-2.3,0-3.7,0c-0.5-0.8-1-1.9-1.7-3.1c1.3-1,2.3-1.8,3.6-2.9c0.8,0.7,1.9,1.6,3.3,2.7
			C95.9,234.8,95.4,235.9,95,237z"/>
		<path class="st0" d="M106.5,214.7c0.7,1.6,1.1,2.6,1.6,3.6c-0.4,0.5-0.9,0.9-1.4,1.5c-1.3,0-2.8,0-4.5,0c-0.1-1.1-0.1-2.3-0.2-4
			C103.5,215.5,104.9,215.1,106.5,214.7z"/>
		<path class="st0" d="M139.3,215.2c-1.1,1.1-1.9,1.9-2.9,2.9c-1-0.5-2.1-1-3.3-1.5c0-1.1,0-2.2,0-3.1c1.2-2.1,2.9-1.4,4.8-1.6
			C138.4,213.1,138.9,214.2,139.3,215.2z"/>
		<path class="st0" d="M147.8,199.7c-0.3,0.3-0.8,0.7-1.3,1.3c-0.9,0-1.9,0-3.2,0c-0.1-0.4-0.2-1-0.4-1.5c-0.3-0.5-0.7-1-1.3-1.8
			c1.5-1,2.7-1.8,3.8-2.5c0.9,0.4,1.6,0.7,2.5,1.1C147.8,197.3,147.8,198.4,147.8,199.7z"/>
		<path class="st0" d="M117.6,200c0.5,0.2,1.4,0.7,2.2,1.1c0.2,1.9,0.6,3.6-1.3,4.8c-0.9,0-2.1,0-3.2,0c-0.2-0.6-0.4-1.2-0.7-1.7
			c-0.2-0.4-0.5-0.8-0.9-1.4C114.8,202,115.9,201.2,117.6,200z"/>
		<path class="st0" d="M44,204.5c-0.5,0.5-0.9,0.9-1.4,1.4c-1.9-1-2-2.1-0.3-4.8C43.8,201.8,44.3,203,44,204.5z"/>
		<path class="st0" d="M48.2,213.4c0-1.4,0-2.3,0-3.6c1.2,0.6,2,1.1,3.3,1.8C50.2,212.2,49.4,212.7,48.2,213.4z"/>
	</g>
</g>
</svg>
